:version 1.10
:name ASF
:units
  mass 1
  length 1
  angle deg
:documentation
  ASF file generated by Kaydara
:root
  axis xyz
  order  tx ty tz rx ry rz
  position 0 0 0
  orientation 0 0 0
:bonedata
  begin
    id 1
    name SpineDummy
    direction 0.999998 -0.00179978 1.38929e-006
    length 3.60008
    axis 0 0 0 xyz
  end
  begin
    id 2
    name Spine
    direction 0.964365 0.262802 0.0305839
    length 8.13928
    axis 1.33928 -1.75354 15.2838 xyz
    dof rx ry rz
  end
  begin
    id 3
    name Spine1
    direction 0.811168 0.572065 0.12144
    length 7.14954
    axis 2.2224 -6.9761 35.2157 xyz
    dof rx ry rz
  end
  begin
    id 4
    name Neck
    direction 0 0 0
    length 0
    axis 2.2224 -6.9761 35.2157 xyz
    dof rx ry rz
  end
  begin
    id 5
    name HeadDummy
    direction 0.810939 0.572387 0.121455
    length 3.55534
    axis 2.2224 -6.9761 35.2157 xyz
  end
  begin
    id 6
    name Head
    direction 0.998226 -0.000232542 0.0595419
    length 7.35666
    axis -3.03688 -3.41352 -0.0133467 xyz
    dof rx ry rz
  end
  begin
    id 7
    name R_ClavicleDummy
    direction 0.531669 -0.194489 -0.824319
    length 2.49392
    axis 2.2224 -6.9761 35.2157 xyz
  end
  begin
    id 8
    name R_Clavicle
    direction -0.155119 0.0480802 -0.986725
    length 4.485
    axis -54.2764 80.6538 162.779 xyz
    dof rx ry rz
  end
  begin
    id 9
    name R_UpperArm
    direction -0.955567 0.200068 -0.216484
    length 10.1122
    axis -72.9943 12.5026 168.175 xyz
    dof rx ry rz
  end
  begin
    id 10
    name R_Forearm
    direction -0.61433 0.385743 0.688332
    length 9.39148
    axis -117.015 -43.4982 147.875 xyz
    dof rx ry rz
  end
  begin
    id 11
    name R_Hand
    direction -0.699429 0.0170333 0.714499
    length 3.66324
    axis -45.0303 -36.7097 175.478 xyz
    dof rx ry rz
  end
  begin
    id 12
    name L_ClavicleDummy
    direction 0.40287 -0.36502 0.839319
    length 2.49392
    axis 2.2224 -6.9761 35.2157 xyz
  end
  begin
    id 13
    name L_Clavicle
    direction -0.231271 -0.0726419 0.970174
    length 4.485
    axis 18.4357 -75.9711 -162.563 xyz
    dof rx ry rz
  end
  begin
    id 14
    name L_UpperArm
    direction -0.917494 0.144359 0.370629
    length 10.1122
    axis 56.0417 -21.7544 171.058 xyz
    dof rx ry rz
  end
  begin
    id 15
    name L_Forearm
    direction -0.496786 0.615074 -0.612281
    length 9.39148
    axis 89.8094 37.7546 128.927 xyz
    dof rx ry rz
  end
  begin
    id 16
    name L_Hand
    direction -0.409932 0.64962 -0.640274
    length 3.66324
    axis -0.424369 32.133 128.52 xyz
    dof rx ry rz
  end
  begin
    id 17
    name L_ThighDummy
    direction -1.84081e-006 1.87549e-006 1
    length 3.13049
    axis 0 0 0 xyz
  end
  begin
    id 18
    name L_Thigh
    direction -0.947739 0.307978 0.083308
    length 17.9961
    axis 173.219 -4.77873 161.998 xyz
    dof rx ry rz
  end
  begin
    id 19
    name L_Calf
    direction -0.728814 -0.684427 0.0197583
    length 13.3367
    axis 167.331 -1.13214 -136.799 xyz
    dof rx ry rz
  end
  begin
    id 20
    name L_Foot
    direction -0.9028 0.418719 0.0981191
    length 5.8674
    axis 163.436 11.5135 -155.37 xyz
    dof rx ry rz
  end
  begin
    id 21
    name L_Toe0
    direction -0.35341 0.886259 0.299411
    length 4.75286
    axis 169.316 -17.4222 111.74 xyz
    dof rx ry rz
  end
  begin
    id 22
    name R_ThighDummy
    direction 9.32778e-007 -8.82053e-007 -1
    length 3.13049
    axis 0 0 0 xyz
  end
  begin
    id 23
    name R_Thigh
    direction -0.925064 0.37528 -0.0585023
    length 17.9961
    axis -178.698 3.35385 157.919 xyz
    dof rx ry rz
  end
  begin
    id 24
    name R_Calf
    direction -0.68969 -0.718776 -0.0876886
    length 13.3367
    axis -160.504 5.03065 -133.817 xyz
    dof rx ry rz
  end
  begin
    id 25
    name R_Foot
    direction -0.857405 0.418858 -0.299022
    length 5.8674
    axis -161.328 4.38911 -154.413 xyz
    dof rx ry rz
  end
  begin
    id 26
    name R_Toe0
    direction -0.100745 0.952789 -0.286433
    length 4.75286
    axis 171.683 16.6445 96.0359 xyz
    dof rx ry rz
  end
:hierarchy
  begin
    root SpineDummy L_ThighDummy R_ThighDummy
    SpineDummy Spine
    Spine Spine1
    Spine1 Neck
    Neck HeadDummy R_ClavicleDummy L_ClavicleDummy
    HeadDummy Head
    R_ClavicleDummy R_Clavicle
    R_Clavicle R_UpperArm
    R_UpperArm R_Forearm
    R_Forearm R_Hand
    L_ClavicleDummy L_Clavicle
    L_Clavicle L_UpperArm
    L_UpperArm L_Forearm
    L_Forearm L_Hand
    L_ThighDummy L_Thigh
    L_Thigh L_Calf
    L_Calf L_Foot
    L_Foot L_Toe0
    R_ThighDummy R_Thigh
    R_Thigh R_Calf
    R_Calf R_Foot
    R_Foot R_Toe0
  end

:SAMPLES-PER-SECOND 30
:FULLY-SPECIFIED
:DEGREES
22
root  -0.641327 30.6348 -61.9319 100.253 2.74122 93.6427
Spine  -0.783223 -6.20375 -7.00578
Spine1  0.340687 3.77217 10.2964
Neck  3.97569e-016 0 -2.38542e-015
Head  8.96303 -3.41563 6.79223
R_Clavicle  0.347314 -15.533 0.928895
R_UpperArm  24.4208 -7.1654 27.7821
R_Forearm  12.9975 -34.9697 20.867
R_Hand  -1.36861 7.10344 -21.8145
L_Clavicle  -0.370562 14.1239 -1.6181
L_UpperArm  14.075 -12.073 0.353417
L_Forearm  -1.06184 2.39798 2.76158
L_Hand  0.453067 6.95153 4.32716
L_Thigh  -17.6746 -2.20606 -4.32828
L_Calf  -2.21457 -0.779625 6.78538
L_Foot  8.36462 8.51752 21.4432
L_Toe0  0.505156 0.0344461 -6.1361
R_Thigh  10.2934 -11.7108 4.27248
R_Calf  1.23114 -2.31978 -7.25872
R_Foot  1.59844 3.34347 -7.65114
R_Toe0  8.23941 -1.78455 -7.06326
23
root  -0.597776 30.7601 -61.3054 99.8342 3.33109 93.6686
Spine  -1.1364 -7.13314 -7.6885
Spine1  0.0291897 5.39648 9.7102
Neck  3.97569e-016 0 -2.38542e-015
Head  10.0846 -2.35656 9.34471
R_Clavicle  0.368075 -16.0445 1.19481
R_UpperArm  22.9905 -10.2397 30.3554
R_Forearm  14.5145 -31.7415 20.9016
R_Hand  -1.36518 7.0162 -21.8351
L_Clavicle  -0.354645 13.6918 -1.47995
L_UpperArm  14.4782 -10.723 -5.70017
L_Forearm  -2.27956 5.96437 6.92187
L_Hand  0.513373 6.8699 4.91288
L_Thigh  -17.7651 -1.80542 -6.78145
L_Calf  -1.9106 -0.977221 8.23939
L_Foot  8.21938 8.04391 21.6418
L_Toe0  0.505156 0.0344461 -6.1361
R_Thigh  9.3067 -12.1012 4.78413
R_Calf  0.0950386 -2.45342 -7.68414
R_Foot  1.56655 3.38162 -7.1437
R_Toe0  6.4832 -0.785908 -13.0903
24
root  -0.554888 31.0855 -60.5679 98.8345 3.87441 93.4613
Spine  -1.95773 -8.11779 -8.6596
Spine1  -0.836587 7.39263 8.28703
Neck  3.97569e-016 0 -2.38542e-015
Head  12.968 -2.39828 12.8691
R_Clavicle  0.37807 -16.6956 1.27866
R_UpperArm  17.2968 -12.5672 33.4013
R_Forearm  20.2545 -26.7265 20.7533
R_Hand  -1.42605 7.65665 -22.2638
L_Clavicle  -0.347219 13.3874 -1.25079
L_UpperArm  12.6046 -8.32738 -8.4363
L_Forearm  -2.41741 9.09746 10.6517
L_Hand  0.564171 6.30177 5.62287
L_Thigh  -18.1319 -1.32774 -10.124
L_Calf  -1.90467 -1.45587 11.6587
L_Foot  7.80468 7.65762 20.8379
L_Toe0  0.505156 0.0344461 -6.1361
R_Thigh  8.27793 -12.2255 4.4778
R_Calf  -1.0079 -1.52596 -4.80386
R_Foot  1.45465 2.63543 -7.79293
R_Toe0  4.33388 -0.558121 -13.8328
25
root  -0.52494 31.5372 -59.7832 97.7895 4.17868 93.1848
Spine  -3.18967 -9.26886 -9.72919
Spine1  -2.14499 9.85752 6.31915
Neck  3.97569e-016 0 -2.38542e-015
Head  16.5147 -3.2402 16.694
R_Clavicle  0.3905 -17.6035 1.39997
R_UpperArm  12.8037 -13.4972 36.5899
R_Forearm  23.2126 -22.6406 19.9598
R_Hand  -1.44895 7.83483 -22.3891
L_Clavicle  -0.362417 13.5752 -0.898826
L_UpperArm  10.3987 -6.03492 -9.03149
L_Forearm  -2.13695 11.8612 14.0352
L_Hand  0.454591 5.33587 4.94807
L_Thigh  -18.9696 -0.902225 -13.9605
L_Calf  -1.54 -2.1859 16.8259
L_Foot  7.31747 7.7245 19.1337
L_Toe0  0.511747 0.0350154 -6.20067
R_Thigh  7.66599 -12.4576 3.50357
R_Calf  -1.68611 0.349008 1.00382
R_Foot  1.32226 1.95138 -7.98109
R_Toe0  2.18112 -0.372151 -15.0552
26
root  -0.508961 31.9678 -58.9766 96.8291 4.18911 93.124
Spine  -4.6022 -10.3927 -10.836
Spine1  -3.72959 12.1378 4.10274
Neck  3.97569e-016 0 -2.38542e-015
Head  19.7562 -4.27807 20.4012
R_Clavicle  0.40384 -18.2841 1.63822
R_UpperArm  12.6479 -13.947 39.4687
R_Forearm  20.9665 -20.0576 17.6808
R_Hand  -1.26847 7.26036 -20.9915
L_Clavicle  -0.375046 13.7265 -0.551958
L_UpperArm  8.92225 -4.0333 -8.63163
L_Forearm  -2.43247 14.4246 17.282
L_Hand  0.266482 4.12362 3.299
L_Thigh  -20.0773 -0.683434 -17.5854
L_Calf  -0.583026 -2.90519 22.053
L_Foot  6.76363 8.12329 16.7482
L_Toe0  0.450765 0.0313676 -5.60504
R_Thigh  7.06527 -12.9508 2.0629
R_Calf  -2.06593 2.92986 9.04052
R_Foot  1.29043 1.71832 -8.17451
R_Toe0  -0.384643 -0.268267 -16.5227
27
root  -0.50806 32.2795 -58.1541 95.9231 4.22365 93.0696
Spine  -6.04484 -10.9288 -11.7413
Spine1  -5.43198 13.9228 2.00884
Neck  3.97569e-016 0 -2.38542e-015
Head  22.6816 -5.37415 23.3575
R_Clavicle  0.414604 -18.3328 1.93055
R_UpperArm  13.0287 -14.3113 41.6189
R_Forearm  18.1916 -17.6631 15.3134
R_Hand  -0.964677 6.52888 -18.3694
L_Clavicle  -0.375893 13.6231 -0.349521
L_UpperArm  7.93499 -2.30468 -7.63322
L_Forearm  -3.0784 16.491 19.9972
L_Hand  0.113005 2.91251 1.63878
L_Thigh  -20.5821 -0.278336 -19.9195
L_Calf  0.400678 -3.19293 24.3187
L_Foot  5.95492 8.40214 13.6711
L_Toe0  0.155947 0.0142979 -2.71439
R_Thigh  6.37371 -13.3896 0.105524
R_Calf  -1.69109 5.87973 18.5158
R_Foot  1.2917 1.30901 -9.07205
R_Toe0  -1.92853 -0.272347 -17.4034
28
root  -0.527395 32.4658 -57.3183 94.9898 4.56042 92.7978
Spine  -7.29397 -11.0073 -12.3789
Spine1  -6.84247 15.8218 0.705344
Neck  3.97569e-016 0 -2.38542e-015
Head  25.4324 -6.51907 24.8183
R_Clavicle  0.425714 -17.9779 2.22952
R_UpperArm  13.3158 -14.0639 43.0261
R_Forearm  16.942 -15.3949 13.1972
R_Hand  -0.704887 6.24299 -16.0299
L_Clavicle  -0.374128 13.5012 -0.254307
L_UpperArm  7.02771 -1.03543 -6.37534
L_Forearm  -3.30719 17.8012 21.7736
L_Hand  0.0224841 2.14079 0.424052
L_Thigh  -20.2185 0.0934616 -22.624
L_Calf  0.141592 -3.59115 26.7678
L_Foot  5.23992 8.00439 11.7113
L_Toe0  -0.00912706 0.0113604 -1.049
R_Thigh  5.77655 -13.4946 -2.42288
R_Calf  -0.246823 8.86716 28.7649
R_Foot  1.08757 0.231835 -9.21276
R_Toe0  -1.78853 -0.272788 -17.3235
29
root  -0.593948 32.5129 -56.4758 93.9635 4.82725 92.5525
Spine  -8.07425 -11.3785 -13.3205
Spine1  -7.58496 18.2376 0.547063
Neck  3.97569e-016 0 -2.38542e-015
Head  27.5885 -7.46273 24.9462
R_Clavicle  0.432821 -17.7387 2.39632
R_UpperArm  13.9913 -13.1466 44.3198
R_Forearm  17.7995 -13.0987 11.1192
R_Hand  -0.56991 6.41983 -14.9392
L_Clavicle  -0.37575 13.4919 -0.166323
L_UpperArm  6.65659 -0.36716 -5.34957
L_Forearm  -3.47999 18.5845 22.8588
L_Hand  -0.0154998 1.93929 -0.143908
L_Thigh  -19.2669 0.281522 -25.6009
L_Calf  -1.40089 -4.50978 29.7613
L_Foot  4.74967 7.18152 10.983
L_Toe0  -0.0179074 0.0115382 -0.94189
R_Thigh  4.82139 -13.5131 -4.64058
R_Calf  0.408611 11.2821 38.4554
R_Foot  1.3002 1.37961 -9.40631
R_Toe0  -1.78853 -0.272788 -17.3235
30
root  -0.756632 32.394 -55.6683 92.8331 4.44839 92.3612
Spine  -8.39909 -11.7865 -14.8006
Spine1  -7.85083 20.5447 0.780742
Neck  3.97569e-016 0 -2.38542e-015
Head  28.9135 -8.25449 24.5502
R_Clavicle  0.431537 -17.8391 2.37101
R_UpperArm  14.894 -11.9511 45.6568
R_Forearm  21.7332 -11.0441 9.30511
R_Hand  -0.555845 6.61583 -14.908
L_Clavicle  -0.394427 14.0066 -0.0118776
L_UpperArm  7.56317 -0.380155 -4.3812
L_Forearm  -4.15114 18.9928 23.4323
L_Hand  -0.00654106 2.05907 -5.31344e-005
L_Thigh  -18.1336 0.497009 -27.8807
L_Calf  -3.30918 -5.67644 32.2982
L_Foot  4.50286 6.10858 11.4234
L_Toe0  0.0577744 0.0124135 -1.73721
R_Thigh  3.3516 -13.3201 -4.55353
R_Calf  -2.6142 11.7144 43.7665
R_Foot  2.8334 7.76225 -13.5219
R_Toe0  -1.78853 -0.272788 -17.3235
31
root  -1.05383 32.1363 -54.9568 91.3711 3.7752 91.778
Spine  -8.50105 -11.309 -15.4736
Spine1  -8.04254 22.3502 0.415353
Neck  3.97569e-016 0 -2.38542e-015
Head  30.3233 -9.47015 23.423
R_Clavicle  0.430393 -18.148 2.35616
R_UpperArm  15.1384 -9.98982 45.5145
R_Forearm  29.5488 -10.5851 8.90664
R_Hand  -0.632813 6.50601 -15.5163
L_Clavicle  -0.444093 15.6799 0.187812
L_UpperArm  8.78691 -1.03251 -2.62629
L_Forearm  -4.13006 18.8299 23.2035
L_Hand  0.00404686 2.04081 0.152823
L_Thigh  -17.8967 1.19455 -28.977
L_Calf  -4.52428 -5.87061 32.9902
L_Foot  4.27675 4.42436 12.8266
L_Toe0  0.136126 0.0141649 -2.56119
R_Thigh  1.29699 -11.1951 -2.02546
R_Calf  -6.25033 10.2144 41.5186
R_Foot  2.85873 7.4787 -15.7248
R_Toe0  -1.78853 -0.272788 -17.3235
32
root  -1.49998 31.7773 -54.3373 89.1778 3.87383 90.9487
Spine  -8.37256 -10.6283 -13.7578
Spine1  -7.9272 24.3693 -0.123155
Neck  3.97569e-016 0 -2.38542e-015
Head  33.1109 -11.3199 20.4
R_Clavicle  0.429872 -18.5589 2.36425
R_UpperArm  14.2394 -6.36144 42.2808
R_Forearm  39.385 -12.4622 10.5593
R_Hand  -0.820069 6.16067 -17.0177
L_Clavicle  -0.506588 17.941 0.12517
L_UpperArm  7.91651 -1.58486 0.193304
L_Forearm  -2.40324 18.3369 22.5153
L_Hand  -0.055589 1.35578 -0.809683
L_Thigh  -19.0592 2.15565 -29.2876
L_Calf  -5.34762 -4.41195 30.5826
L_Foot  3.65443 1.62074 14.5359
L_Toe0  0.119796 0.0122029 -2.38439
R_Thigh  -3.10705 -8.49591 0.10759
R_Calf  -7.42224 9.6151 35.4861
R_Foot  2.75089 7.07817 -14.7962
R_Toe0  -1.78853 -0.272788 -17.3235
33
root  -2.06919 31.3541 -53.7511 86.5486 4.96334 90.4547
Spine  -7.94801 -10.9963 -10.4319
Spine1  -7.00962 26.8049 0.647027
Neck  3.97569e-016 0 -2.38542e-015
Head  37.033 -12.9541 15.6378
R_Clavicle  0.416966 -19.1202 1.95886
R_UpperArm  12.6466 -1.88874 36.7342
R_Forearm  46.5423 -14.8133 12.6764
R_Hand  -1.0994 5.71776 -19.4268
L_Clavicle  -0.551473 18.8206 -0.604419
L_UpperArm  4.42732 -0.74457 3.18586
L_Forearm  -1.22321 18.3533 22.5387
L_Hand  -0.150565 0.205529 -2.93915
L_Thigh  -18.06 3.20627 -28.4949
L_Calf  -8.18752 -3.11441 23.5642
L_Foot  2.14267 -2.40827 14.5317
L_Toe0  -0.0767351 -0.0412914 1.53417
R_Thigh  -5.26082 -6.314 1.7993
R_Calf  -8.57794 8.50113 27.5093
R_Foot  2.3359 6.31638 -9.1247
R_Toe0  -1.78853 -0.272788 -17.3235
34
root  -2.67237 30.9504 -53.1727 84.8577 6.10627 90.031
Spine  -7.64745 -11.0308 -7.60873
Spine1  -5.76737 27.9916 2.81238
Neck  3.97569e-016 0 -2.38542e-015
Head  40.0867 -13.3935 11.2633
R_Clavicle  0.394541 -19.5815 1.00628
R_UpperArm  11.7681 0.938622 31.0196
R_Forearm  47.2814 -14.4182 12.3188
R_Hand  -1.28521 5.24227 -21.1361
L_Clavicle  -0.513041 17.3146 -1.7267
L_UpperArm  0.822905 1.52955 5.43573
L_Forearm  -3.49174 18.9314 23.3482
L_Hand  -0.237401 -0.00486465 -4.88514
L_Thigh  -15.8036 4.94755 -25.4963
L_Calf  -10.4716 -1.67811 12.199
L_Foot  0.446981 -5.00673 10.6441
L_Toe0  -2.68492 0.597213 9.45204
R_Thigh  -5.04306 -4.5276 2.5445
R_Calf  -9.24909 6.7502 21.7613
R_Foot  1.97869 5.70723 -5.21616
R_Toe0  -1.78853 -0.272788 -17.3235
35
root  -3.23205 30.5493 -52.6043 84.9774 6.74725 88.9891
Spine  -7.71114 -8.45867 -5.86468
Spine1  -5.24221 26.4463 4.79125
Neck  3.97569e-016 0 -2.38542e-015
Head  40.7858 -12.7001 8.64124
R_Clavicle  0.371362 -19.3973 0.197745
R_UpperArm  11.7504 1.03836 25.7214
R_Forearm  42.1693 -9.7028 8.14876
R_Hand  -1.20393 4.85871 -20.3492
L_Clavicle  -0.411195 15.2109 -2.48703
L_UpperArm  -0.12144 2.96507 7.36918
L_Forearm  -7.91954 18.4588 22.687
L_Hand  -0.317237 1.38573 -5.07124
L_Thigh  -12.3876 7.05787 -20.1705
L_Calf  -13.6276 0.0736004 -0.696654
L_Foot  1.03759 0.92625 4.27458
L_Toe0  -12.5699 4.34898 12.7924
R_Thigh  -3.75673 -2.81071 2.71792
R_Calf  -9.22019 5.32223 17.0896
R_Foot  1.6716 5.39549 -1.58175
R_Toe0  -1.78853 -0.272788 -17.3235
36
root  -3.74294 30.1093 -51.9915 85.8112 7.55673 87.6308
Spine  -7.60819 -4.14527 -4.64319
Spine1  -5.14953 22.708 6.26474
Neck  3.97569e-016 0 -2.38542e-015
Head  39.6104 -11.5291 6.80906
R_Clavicle  0.347481 -18.1633 0.162579
R_UpperArm  10.5966 0.123381 19.6167
R_Forearm  34.5216 -1.90818 1.56262
R_Hand  -0.923187 4.82515 -17.5721
L_Clavicle  -0.379981 14.6303 -2.64088
L_UpperArm  1.09879 1.9024 9.58586
L_Forearm  -9.57136 15.2691 18.384
L_Hand  -0.262194 2.89938 -3.40652
L_Thigh  -8.38402 8.98893 -14.4729
L_Calf  -14.29 1.54128 -11.6414
L_Foot  1.38839 9.81192 -3.73889
L_Toe0  -20.3666 7.81276 13.6931
R_Thigh  -1.26787 -1.46643 2.21933
R_Calf  -9.92183 3.9231 12.6659
R_Foot  1.25841 4.90864 2.42983
R_Toe0  -1.78853 -0.272788 -17.3235
